<svg width="1060" height="271" viewBox="0 0 1060 271" fill="none" xmlns="http://www.w3.org/2000/svg">
<path d="M337.435 111.514H358.236M774.253 111.514H784.653M813.544 111.514H823.944M779.453 106.314V116.714M110.937 78.5795V78.0133C110.937 76.9955 110.226 76.116 109.231 75.9027C99.6914 73.8585 89.8267 73.8585 80.2868 75.9027C79.2916 76.116 78.5806 76.9955 78.5806 78.0133M78.5806 78.0133V82.0463H46.2238M78.5806 78.0133C78.5806 76.9955 77.8696 76.116 76.8744 75.9027C67.3345 73.8585 57.4698 73.8585 47.9299 75.9027C46.9347 76.116 46.2238 76.9955 46.2238 78.0133V82.0463M46.2238 82.0463V77.2876C46.2238 76.7162 45.7765 76.2448 45.2059 76.2148L40.0802 75.945C30.37 75.4339 21.1881 80.3914 16.2886 88.7905C16.2162 88.9146 16.1781 89.0557 16.1781 89.1993V94.758M210.319 82.0463L202.447 70.2375C201.589 68.9515 200.146 68.1791 198.601 68.1791H131.901C130.355 68.1791 128.912 68.9515 128.055 70.2375L122.493 78.5795M140.983 68.3275C143.455 66.259 153.382 64.7123 165.251 64.7123C177.12 64.7123 187.046 66.259 189.518 68.3275M149.072 53.1563H181.429M149.072 53.1563V65.8679M149.072 53.1563L144.599 52.7496C140.303 52.359 137.402 48.182 138.537 44.0201L139.363 40.9921C139.637 39.9866 140.551 39.2891 141.593 39.2891H188.909C189.951 39.2891 190.864 39.9866 191.138 40.9921L191.964 44.0201C193.099 48.182 190.199 52.359 185.903 52.7496L181.429 53.1563M181.429 53.1563V65.8679M847.056 82.0463L854.929 70.2375C855.786 68.9515 857.229 68.1791 858.775 68.1791H925.474C927.02 68.1791 928.463 68.9515 929.32 70.2375L934.882 78.5795M916.392 68.3275C913.92 66.259 903.994 64.7123 892.124 64.7123C880.255 64.7123 870.329 66.259 867.857 68.3275M908.303 53.1563H875.946M908.303 53.1563V65.8679M908.303 53.1563L912.776 52.7496C917.073 52.359 919.973 48.182 918.838 44.0201L918.012 40.9921C917.738 39.9866 916.825 39.2891 915.782 39.2891H868.467C867.424 39.2891 866.511 39.9866 866.237 40.9921L865.411 44.0201C864.276 48.182 867.176 52.359 871.473 52.7496L875.946 53.1563M875.946 53.1563V65.8679M1031.95 86.6687V77.4239C1031.95 74.871 1029.88 72.8015 1027.33 72.8015H960.305C957.752 72.8015 955.683 74.871 955.683 77.4239V82.0463M1006.53 82.0463V77.4239C1006.53 74.871 1004.46 72.8015 1001.91 72.8015H985.728C983.175 72.8015 981.106 74.871 981.106 77.4239V82.0463M941.815 160.037L1045.24 139.236M117.872 160.037L14.4451 139.236M268.099 111.514C268.099 118.216 262.667 123.648 255.966 123.648C249.264 123.648 243.832 118.216 243.832 111.514C243.832 104.813 249.264 99.3804 255.966 99.3804C262.667 99.3804 268.099 104.813 268.099 111.514ZM791.587 111.514C791.587 118.216 786.155 123.648 779.453 123.648C772.752 123.648 767.319 118.216 767.319 111.514C767.319 104.813 772.752 99.3804 779.453 99.3804C786.155 99.3804 791.587 104.813 791.587 111.514ZM830.878 111.514C830.878 118.216 825.445 123.648 818.744 123.648C812.042 123.648 806.61 118.216 806.61 111.514C806.61 104.813 812.042 99.3804 818.744 99.3804C825.445 99.3804 830.878 104.813 830.878 111.514ZM721.095 111.514C721.095 118.216 715.663 123.648 708.962 123.648C702.26 123.648 696.828 118.216 696.828 111.514C696.828 104.813 702.26 99.3804 708.962 99.3804C715.663 99.3804 721.095 104.813 721.095 111.514ZM715.317 111.514C715.317 108.004 712.472 105.158 708.962 105.158C705.451 105.158 702.606 108.004 702.606 111.514C702.606 115.024 705.451 117.87 708.962 117.87C712.472 117.87 715.317 115.024 715.317 111.514ZM303.923 112.67C303.923 111.074 302.63 109.781 301.034 109.781C299.438 109.781 298.145 111.074 298.145 112.67C298.145 114.265 299.438 115.559 301.034 115.559C302.63 115.559 303.923 114.265 303.923 112.67ZM442.595 126.537C438.766 126.537 435.662 123.433 435.662 119.603V103.425C435.662 99.5957 438.766 96.4914 442.595 96.4914C446.425 96.4914 449.529 99.5957 449.529 103.425V119.603C449.529 123.433 446.425 126.537 442.595 126.537ZM459.929 126.537C456.1 126.537 452.996 123.433 452.996 119.603V103.425C452.996 99.5957 456.1 96.4914 459.929 96.4914C463.759 96.4914 466.863 99.5957 466.863 103.425V119.603C466.863 123.433 463.759 126.537 459.929 126.537ZM477.263 126.537C473.434 126.537 470.33 123.433 470.33 119.603V103.425C470.33 99.5957 473.434 96.4914 477.263 96.4914C481.093 96.4914 484.197 99.5957 484.197 103.425V119.603C484.197 123.433 481.093 126.537 477.263 126.537ZM494.597 126.537C490.768 126.537 487.664 123.433 487.664 119.603V103.425C487.664 99.5957 490.768 96.4914 494.597 96.4914C498.427 96.4914 501.531 99.5957 501.531 103.425V119.603C501.531 123.433 498.427 126.537 494.597 126.537ZM511.931 126.537C508.102 126.537 504.998 123.433 504.998 119.603V103.425C504.998 99.5957 508.102 96.4914 511.931 96.4914C515.761 96.4914 518.865 99.5957 518.865 103.425V119.603C518.865 123.433 515.761 126.537 511.931 126.537ZM529.265 126.537C525.436 126.537 522.332 123.433 522.332 119.603V103.425C522.332 99.5957 525.436 96.4914 529.265 96.4914C533.095 96.4914 536.199 99.5957 536.199 103.425V119.603C536.199 123.433 533.095 126.537 529.265 126.537ZM546.599 126.537C542.77 126.537 539.666 123.433 539.666 119.603V103.425C539.666 99.5957 542.77 96.4914 546.599 96.4914C550.429 96.4914 553.533 99.5957 553.533 103.425V119.603C553.533 123.433 550.429 126.537 546.599 126.537ZM563.933 126.537C560.104 126.537 557 123.433 557 119.603V103.425C557 99.5957 560.104 96.4914 563.933 96.4914C567.763 96.4914 570.867 99.5957 570.867 103.425V119.603C570.867 123.433 567.763 126.537 563.933 126.537ZM581.268 126.537C577.438 126.537 574.334 123.433 574.334 119.603V103.425C574.334 99.5957 577.438 96.4914 581.268 96.4914C585.097 96.4914 588.201 99.5957 588.201 103.425V119.603C588.201 123.433 585.097 126.537 581.268 126.537ZM598.602 126.537C594.772 126.537 591.668 123.433 591.668 119.603V103.425C591.668 99.5957 594.772 96.4914 598.602 96.4914C602.431 96.4914 605.535 99.5957 605.535 103.425V119.603C605.535 123.433 602.431 126.537 598.602 126.537ZM615.936 126.537C612.106 126.537 609.002 123.433 609.002 119.603V103.425C609.002 99.5957 612.106 96.4914 615.936 96.4914C619.765 96.4914 622.869 99.5957 622.869 103.425V119.603C622.869 123.433 619.765 126.537 615.936 126.537ZM336.858 117.87H358.814C362.324 117.87 365.17 115.024 365.17 111.514C365.17 108.004 362.324 105.158 358.814 105.158H336.858C333.347 105.158 330.502 108.004 330.502 111.514C330.502 115.024 333.347 117.87 336.858 117.87ZM137.516 82.0463H105.159C105.159 80.1317 106.712 78.5795 108.626 78.5795H134.05C135.964 78.5795 137.516 80.1317 137.516 82.0463ZM919.859 82.0463H952.216C952.216 80.1317 950.664 78.5795 948.749 78.5795H923.326C921.411 78.5795 919.859 80.1317 919.859 82.0463ZM1011.25 205.325L992.358 208.232C979.65 210.187 967.044 204.146 960.606 193.017L939.527 156.582C934.057 147.126 924.451 140.802 913.604 139.515L907.961 138.846C901.565 138.087 896.747 132.664 896.747 126.223V123.648C896.747 115.989 902.955 109.781 910.614 109.781H1028.14C1039.33 109.781 1047.96 119.646 1046.47 130.737L1042.09 163.223C1041.5 167.649 1040.55 172.019 1039.25 176.292L1037.29 182.744C1033.67 194.653 1023.55 203.433 1011.25 205.325ZM48.4383 205.325L67.3287 208.232C80.0364 210.187 92.6422 204.146 99.0806 193.017L120.159 156.582C125.629 147.126 135.235 140.802 146.083 139.515L151.726 138.846C158.122 138.087 162.94 132.664 162.94 126.223V123.648C162.94 115.989 156.731 109.781 149.072 109.781H31.5455C20.3538 109.781 11.728 119.646 13.2211 130.737L17.5942 163.223C18.19 167.649 19.141 172.019 20.4381 176.292L22.3968 182.744C26.012 194.653 36.1373 203.433 48.4383 205.325Z" stroke="white" stroke-width="1.1556" stroke-miterlimit="10"/>
<path opacity="0.3" d="M18.4896 168.139L21.0314 175.465C25.5122 188.38 36.7526 197.77 50.2591 199.88L64.4637 202.099C76.0474 203.909 87.518 198.24 93.1151 187.938L112.165 152.874C119.243 139.848 132.88 131.737 147.705 131.737L911.982 131.737C926.807 131.737 940.444 139.847 947.522 152.874L966.572 187.938C972.169 198.24 983.64 203.909 995.223 202.099L1009.43 199.88C1022.93 197.769 1034.17 188.38 1038.66 175.465L1041.2 168.138M1056.22 123.648C1054.92 105.416 1039.75 91.291 1021.47 91.291H38.2173C19.9394 91.291 4.76904 105.416 3.4668 123.648" stroke="white" stroke-width="1.1556" stroke-miterlimit="10"/>
<path d="M45.2336 82.0469C20.0636 82.0469 0.658956 104.224 4.00011 129.171L10.158 175.149C13.0077 196.428 30.1326 212.943 51.5001 215.021L70.6572 216.883C87.6296 218.533 104.132 210.705 113.591 196.517L136.217 162.578C141.361 154.862 150.02 150.227 159.293 150.227H900.394C909.667 150.227 918.327 154.862 923.47 162.578L946.096 196.517C955.555 210.705 972.058 218.533 989.03 216.883L1008.19 215.021C1029.55 212.943 1046.68 196.428 1049.53 175.149L1055.69 129.171C1059.03 104.224 1039.62 82.0469 1014.45 82.0469H45.2336Z" stroke="white" stroke-width="3.46681" stroke-miterlimit="10"/>
</svg>
