<svg width="1060" height="429" viewBox="0 0 1060 429" fill="none" xmlns="http://www.w3.org/2000/svg">
<path d="M152.034 410.192L151.97 410.766L152.034 410.192ZM154.401 410.453L154.465 409.878L154.401 410.453ZM907.652 410.192L907.715 410.766L907.652 410.192ZM905.284 410.453L905.221 409.878L905.284 410.453ZM109.121 58.8053L108.599 58.5574V58.5574L109.121 58.8053ZM157.745 17.5827L157.728 17.0052H157.728L157.745 17.5827ZM16.2632 38.6962L16.7452 39.0149L16.2632 38.6962ZM19.4546 33.8702L18.9726 33.5515L19.4546 33.8702ZM34.8059 19.4587L35.0936 19.9598L34.8059 19.4587ZM18.0273 81.3676L17.5733 81.725V81.725L18.0273 81.3676ZM166.277 9.25986L166.854 9.29191V9.29191L166.277 9.25986ZM119.52 36.9128L118.999 36.6638L118.998 36.6649L119.52 36.9128ZM148.657 17.8624L148.64 17.2849L148.638 17.2849L148.657 17.8624ZM79.7115 87.0048L79.5905 86.4398L79.7115 87.0048ZM101.299 73.3598L101.757 73.7116L101.299 73.3598ZM110.539 27.8426L110.759 27.3083L110.539 27.8426ZM112.976 28.846L113.196 28.3117L112.976 28.846ZM118.425 35.1523L117.865 35.2924L118.425 35.1523ZM94.6008 27.2491L94.5708 26.6721L94.6008 27.2491ZM104.156 26.7515L104.186 27.3285L104.156 26.7515ZM18.1164 55.3799L18.4674 55.8389L18.1164 55.3799ZM951.72 58.8053L952.242 58.5574V58.5574L951.72 58.8053ZM903.096 17.5827L903.114 17.0052L903.096 17.5827ZM1044.58 38.6962L1045.06 38.3775V38.3775L1044.58 38.6962ZM1041.39 33.8702L1040.9 34.1889V34.1889L1041.39 33.8702ZM1026.04 19.4587L1025.75 19.9598L1026.04 19.4587ZM1042.81 81.3676L1043.27 81.725V81.725L1042.81 81.3676ZM894.565 9.25986L893.988 9.29191V9.29191L894.565 9.25986ZM941.321 36.9128L941.843 36.6649L941.843 36.6638L941.321 36.9128ZM912.184 17.8624L912.203 17.2849L912.202 17.2849L912.184 17.8624ZM981.13 87.0048L981.251 86.4398L981.13 87.0048ZM959.542 73.3598L959.084 73.7116L959.542 73.3598ZM950.302 27.8426L950.522 28.3769L950.302 27.8426ZM947.865 28.846L947.645 28.3117V28.3117L947.865 28.846ZM942.416 35.1523L942.977 35.2924V35.2924L942.416 35.1523ZM966.241 27.2491L966.271 26.6721L966.241 27.2491ZM956.686 26.7515L956.656 27.3285L956.686 26.7515ZM1042.72 55.3799L1042.37 55.8389L1042.72 55.3799ZM253.654 273.3V333.391H254.81V273.3H253.654ZM228.231 333.391V273.3H227.075V333.391H228.231ZM240.942 346.103C233.922 346.103 228.231 340.412 228.231 333.391H227.075C227.075 341.05 233.284 347.258 240.942 347.258V346.103ZM253.654 333.391C253.654 340.412 247.963 346.103 240.942 346.103V347.258C248.601 347.258 254.81 341.05 254.81 333.391H253.654ZM240.942 260.588C247.963 260.588 253.654 266.279 253.654 273.3H254.81C254.81 265.641 248.601 259.433 240.942 259.433V260.588ZM240.942 259.433C233.284 259.433 227.075 265.641 227.075 273.3H228.231C228.231 266.279 233.922 260.588 240.942 260.588V259.433ZM287.166 273.3V333.391H288.322V273.3H287.166ZM261.743 333.391V273.3H260.588V333.391H261.743ZM274.455 346.103C267.434 346.103 261.743 340.412 261.743 333.391H260.588C260.588 341.05 266.796 347.258 274.455 347.258V346.103ZM287.166 333.391C287.166 340.412 281.475 346.103 274.455 346.103V347.258C282.113 347.258 288.322 341.05 288.322 333.391H287.166ZM274.455 260.588C281.475 260.588 287.166 266.279 287.166 273.3H288.322C288.322 265.641 282.113 259.433 274.455 259.433V260.588ZM274.455 259.433C266.796 259.433 260.588 265.641 260.588 273.3H261.743C261.743 266.279 267.434 260.588 274.455 260.588V259.433ZM320.679 273.3V333.391H321.835V273.3H320.679ZM295.256 333.391V273.3H294.1V333.391H295.256ZM307.967 346.103C300.947 346.103 295.256 340.412 295.256 333.391H294.1C294.1 341.05 300.309 347.258 307.967 347.258V346.103ZM320.679 333.391C320.679 340.412 314.988 346.103 307.967 346.103V347.258C315.626 347.258 321.835 341.05 321.835 333.391H320.679ZM307.967 260.588C314.988 260.588 320.679 266.279 320.679 273.3H321.835C321.835 265.641 315.626 259.433 307.967 259.433V260.588ZM307.967 259.433C300.309 259.433 294.1 265.641 294.1 273.3H295.256C295.256 266.279 300.947 260.588 307.967 260.588V259.433ZM354.191 273.3V333.391H355.347V273.3H354.191ZM328.768 333.391V273.3H327.613V333.391H328.768ZM341.48 346.103C334.459 346.103 328.768 340.412 328.768 333.391H327.613C327.613 341.05 333.821 347.258 341.48 347.258V346.103ZM354.191 333.391C354.191 340.412 348.5 346.103 341.48 346.103V347.258C349.138 347.258 355.347 341.05 355.347 333.391H354.191ZM341.48 260.588C348.5 260.588 354.191 266.279 354.191 273.3H355.347C355.347 265.641 349.138 259.433 341.48 259.433V260.588ZM341.48 259.433C333.821 259.433 327.613 265.641 327.613 273.3H328.768C328.768 266.279 334.459 260.588 341.48 260.588V259.433ZM387.704 273.3V333.391H388.859V273.3H387.704ZM362.281 333.391V273.3H361.125V333.391H362.281ZM374.992 346.103C367.972 346.103 362.281 340.412 362.281 333.391H361.125C361.125 341.05 367.334 347.258 374.992 347.258V346.103ZM387.704 333.391C387.704 340.412 382.013 346.103 374.992 346.103V347.258C382.651 347.258 388.859 341.05 388.859 333.391H387.704ZM374.992 260.588C382.013 260.588 387.704 266.279 387.704 273.3H388.859C388.859 265.641 382.651 259.433 374.992 259.433V260.588ZM374.992 259.433C367.334 259.433 361.125 265.641 361.125 273.3H362.281C362.281 266.279 367.972 260.588 374.992 260.588V259.433ZM421.216 273.3V333.391H422.372V273.3H421.216ZM395.793 333.391V273.3H394.637V333.391H395.793ZM408.505 346.103C401.484 346.103 395.793 340.412 395.793 333.391H394.637C394.637 341.05 400.846 347.258 408.505 347.258V346.103ZM421.216 333.391C421.216 340.412 415.525 346.103 408.505 346.103V347.258C416.163 347.258 422.372 341.05 422.372 333.391H421.216ZM408.505 260.588C415.525 260.588 421.216 266.279 421.216 273.3H422.372C422.372 265.641 416.163 259.433 408.505 259.433V260.588ZM408.505 259.433C400.846 259.433 394.637 265.641 394.637 273.3H395.793C395.793 266.279 401.484 260.588 408.505 260.588V259.433ZM119.026 182.007H167.562V180.852H119.026V182.007ZM178.54 192.986V241.521H179.695V192.986H178.54ZM167.562 252.499H119.026V253.655H167.562V252.499ZM108.048 241.521V192.986H106.893V241.521H108.048ZM119.026 252.499C112.963 252.499 108.048 247.584 108.048 241.521H106.893C106.893 248.222 112.325 253.655 119.026 253.655V252.499ZM178.54 241.521C178.54 247.584 173.625 252.499 167.562 252.499V253.655C174.263 253.655 179.695 248.222 179.695 241.521H178.54ZM167.562 182.007C173.625 182.007 178.54 186.922 178.54 192.986H179.695C179.695 186.284 174.263 180.852 167.562 180.852V182.007ZM119.026 180.852C112.325 180.852 106.893 186.284 106.893 192.986H108.048C108.048 186.922 112.963 182.007 119.026 182.007V180.852ZM119.026 262.899H167.562V261.744H119.026V262.899ZM178.54 273.878V322.413H179.695V273.878H178.54ZM167.562 333.391H119.026V334.547H167.562V333.391ZM108.048 322.413V273.878H106.893V322.413H108.048ZM119.026 333.391C112.963 333.391 108.048 328.476 108.048 322.413H106.893C106.893 329.114 112.325 334.547 119.026 334.547V333.391ZM178.54 322.413C178.54 328.476 173.625 333.391 167.562 333.391V334.547C174.263 334.547 179.695 329.114 179.695 322.413H178.54ZM167.562 262.899C173.625 262.899 178.54 267.815 178.54 273.878H179.695C179.695 267.176 174.263 261.744 167.562 261.744V262.899ZM119.026 261.744C112.325 261.744 106.893 267.176 106.893 273.878H108.048C108.048 267.815 112.963 262.899 119.026 262.899V261.744ZM892.124 182.007H940.659V180.852H892.124V182.007ZM951.638 192.986V241.521H952.793V192.986H951.638ZM940.659 252.499H892.124V253.655H940.659V252.499ZM881.146 241.521V192.986H879.99V241.521H881.146ZM892.124 252.499C886.061 252.499 881.146 247.584 881.146 241.521H879.99C879.99 248.222 885.423 253.655 892.124 253.655V252.499ZM951.638 241.521C951.638 247.584 946.723 252.499 940.659 252.499V253.655C947.361 253.655 952.793 248.222 952.793 241.521H951.638ZM940.659 182.007C946.723 182.007 951.638 186.922 951.638 192.986H952.793C952.793 186.284 947.361 180.852 940.659 180.852V182.007ZM892.124 180.852C885.423 180.852 879.99 186.284 879.99 192.986H881.146C881.146 186.922 886.061 182.007 892.124 182.007V180.852ZM892.124 262.899H940.659V261.744H892.124V262.899ZM951.638 273.878V322.413H952.793V273.878H951.638ZM940.659 333.391H892.124V334.547H940.659V333.391ZM881.146 322.413V273.878H879.99V322.413H881.146ZM892.124 333.391C886.061 333.391 881.146 328.476 881.146 322.413H879.99C879.99 329.114 885.423 334.547 892.124 334.547V333.391ZM951.638 322.413C951.638 328.476 946.723 333.391 940.659 333.391V334.547C947.361 334.547 952.793 329.114 952.793 322.413H951.638ZM940.659 262.899C946.723 262.899 951.638 267.815 951.638 273.878H952.793C952.793 267.176 947.361 261.744 940.659 261.744V262.899ZM892.124 261.744C885.423 261.744 879.99 267.176 879.99 273.878H881.146C881.146 267.815 886.061 262.899 892.124 262.899V261.744ZM5.77734 154.273H65.8687V153.117H5.77734V154.273ZM83.7805 172.185V334.641H84.9361V172.185H83.7805ZM151.97 410.766L154.338 411.027L154.465 409.878L152.097 409.617L151.97 410.766ZM154.338 411.027C159.341 411.579 163.591 414.937 165.284 419.678L166.372 419.289C164.531 414.132 159.908 410.479 154.465 409.878L154.338 411.027ZM83.7805 334.641C83.7805 373.689 113.158 406.485 151.97 410.766L152.097 409.617C113.87 405.401 84.9361 373.1 84.9361 334.641H83.7805ZM65.8687 154.273C75.7611 154.273 83.7805 162.292 83.7805 172.185H84.9361C84.9361 161.654 76.3993 153.117 65.8687 153.117V154.273ZM1053.91 153.117H993.817V154.273H1053.91V153.117ZM974.75 172.185V334.641H975.905V172.185H974.75ZM907.589 409.617L905.221 409.878L905.348 411.027L907.715 410.766L907.589 409.617ZM905.221 409.878C899.778 410.479 895.155 414.132 893.313 419.289L894.402 419.678C896.095 414.937 900.344 411.579 905.348 411.027L905.221 409.878ZM974.75 334.641C974.75 373.1 945.816 405.401 907.589 409.617L907.715 410.766C946.528 406.485 975.905 373.689 975.905 334.641H974.75ZM993.817 153.117C983.286 153.117 974.75 161.654 974.75 172.185H975.905C975.905 162.292 983.925 154.273 993.817 154.273V153.117ZM81.7813 7.51139H164.076V6.35579H81.7813V7.51139ZM31.3306 88.4035H63.2086V87.2479H31.3306V88.4035ZM16.7452 39.0149L19.9365 34.1889L18.9726 33.5515L15.7812 38.3775L16.7452 39.0149ZM19.9365 34.1889C23.8112 28.3297 29.0016 23.4571 35.0936 19.9598L34.5182 18.9576C28.27 22.5445 22.9466 27.5421 18.9726 33.5515L19.9365 34.1889ZM18.4813 81.0102C8.9086 68.8503 8.20882 51.9235 16.7452 39.0149L15.7812 38.3775C6.97005 51.7017 7.69236 69.1735 17.5733 81.725L18.4813 81.0102ZM157.763 18.1602C162.635 18.0103 166.583 14.1588 166.854 9.29191L165.7 9.22781C165.463 13.496 162 16.8737 157.728 17.0052L157.763 18.1602ZM120.042 37.1619C125.342 26.0643 136.385 18.8446 148.676 18.4399L148.638 17.2849C135.915 17.7038 124.486 25.1768 118.999 36.6638L120.042 37.1619ZM63.2086 88.4035C71.6303 88.4035 75.9275 88.4066 79.8326 87.5697L79.5905 86.4398C75.8337 87.2449 71.6829 87.2479 63.2086 87.2479V88.4035ZM108.599 58.5574C104.963 66.212 103.18 69.9601 100.841 73.008L101.757 73.7116C104.189 70.5432 106.03 66.6604 109.643 59.0532L108.599 58.5574ZM79.8326 87.5697C88.5547 85.7006 96.3267 80.788 101.757 73.7116L100.841 73.008C95.577 79.8667 88.0441 84.6281 79.5905 86.4398L79.8326 87.5697ZM31.3306 87.2479C26.3178 87.2479 21.582 84.9489 18.4813 81.0102L17.5733 81.725C20.8931 85.942 25.9636 88.4035 31.3306 88.4035V87.2479ZM164.076 7.51139C165.01 7.51139 165.752 8.29567 165.7 9.22781L166.854 9.29191C166.942 7.69737 165.673 6.35579 164.076 6.35579V7.51139ZM81.7813 6.35579C65.1967 6.35579 48.9013 10.7006 34.5182 18.9576L35.0936 19.9598C49.3016 11.8033 65.3986 7.51139 81.7813 7.51139V6.35579ZM110.319 28.3769L112.756 29.3803L113.196 28.3117L110.759 27.3083L110.319 28.3769ZM117.865 35.2924L118.466 37.6972L119.587 37.4169L118.986 35.0122L117.865 35.2924ZM94.6309 27.8261L104.186 27.3285L104.126 26.1744L94.5708 26.6721L94.6309 27.8261ZM12.1332 66.3183V72.2251H13.2888V66.3183H12.1332ZM18.4674 55.8389C40.4474 39.0307 66.9982 29.2653 94.6309 27.8261L94.5708 26.6721C66.7052 28.1234 39.9306 37.9711 17.7654 54.9209L18.4674 55.8389ZM112.756 29.3803C115.301 30.4282 117.197 32.6224 117.865 35.2924L118.986 35.0122C118.229 31.9862 116.081 29.4993 113.196 28.3117L112.756 29.3803ZM110.759 27.3083C108.659 26.4436 106.394 26.0563 104.126 26.1744L104.186 27.3285C106.283 27.2193 108.378 27.5774 110.319 28.3769L110.759 27.3083ZM17.7654 54.9209C14.2155 57.6356 12.1332 61.8494 12.1332 66.3183H13.2888C13.2888 62.2093 15.2034 58.3349 18.4674 55.8389L17.7654 54.9209ZM979.06 6.35579H896.765V7.51139H979.06V6.35579ZM1029.51 87.2479H997.633V88.4035H1029.51V87.2479ZM1045.06 38.3775L1041.87 33.5515L1040.9 34.1889L1044.1 39.0149L1045.06 38.3775ZM1041.87 33.5515C1037.89 27.5421 1032.57 22.5445 1026.32 18.9576L1025.75 19.9598C1031.84 23.4571 1037.03 28.3297 1040.9 34.1889L1041.87 33.5515ZM1043.27 81.725C1053.15 69.1735 1053.87 51.7017 1045.06 38.3775L1044.1 39.0149C1052.63 51.9235 1051.93 68.8503 1042.36 81.0102L1043.27 81.725ZM903.114 17.0052C898.841 16.8737 895.379 13.496 895.141 9.22781L893.988 9.29191C894.258 14.1588 898.206 18.0103 903.078 18.1602L903.114 17.0052ZM941.843 36.6638C936.356 25.1768 924.926 17.7038 912.203 17.2849L912.165 18.4399C924.457 18.8446 935.499 26.0643 940.8 37.1619L941.843 36.6638ZM997.633 87.2479C989.159 87.2479 985.008 87.2449 981.251 86.4398L981.009 87.5697C984.914 88.4066 989.211 88.4035 997.633 88.4035V87.2479ZM951.198 59.0532C954.812 66.6604 956.653 70.5432 959.084 73.7116L960.001 73.008C957.662 69.9601 955.878 66.212 952.242 58.5574L951.198 59.0532ZM981.251 86.4398C972.797 84.6281 965.264 79.8667 960.001 73.008L959.084 73.7116C964.515 80.788 972.287 85.7006 981.009 87.5697L981.251 86.4398ZM1029.51 88.4035C1034.88 88.4035 1039.95 85.942 1043.27 81.725L1042.36 81.0102C1039.26 84.9489 1034.52 87.2479 1029.51 87.2479V88.4035ZM896.765 6.35579C895.168 6.35579 893.899 7.69738 893.988 9.29191L895.141 9.22781C895.09 8.29566 895.832 7.51139 896.765 7.51139V6.35579ZM979.06 7.51139C995.443 7.51139 1011.54 11.8033 1025.75 19.9598L1026.32 18.9576C1011.94 10.7006 995.645 6.35579 979.06 6.35579V7.51139ZM950.082 27.3083L947.645 28.3117L948.085 29.3803L950.522 28.3769L950.082 27.3083ZM941.856 35.0121L941.255 37.4169L942.376 37.6972L942.977 35.2924L941.856 35.0121ZM966.271 26.6721L956.716 26.1744L956.656 27.3285L966.211 27.8261L966.271 26.6721ZM1047.55 66.3183V72.2251H1048.71V66.3183H1047.55ZM1043.08 54.9209C1020.91 37.9711 994.136 28.1234 966.271 26.6721L966.211 27.8261C993.843 29.2653 1020.39 39.0307 1042.37 55.8389L1043.08 54.9209ZM947.645 28.3117C944.761 29.4993 942.612 31.9862 941.856 35.0122L942.977 35.2924C943.644 32.6224 945.54 30.4282 948.085 29.3803L947.645 28.3117ZM950.522 28.3769C952.464 27.5774 954.559 27.2193 956.656 27.3285L956.716 26.1744C954.448 26.0563 952.182 26.4436 950.082 27.3083L950.522 28.3769ZM1042.37 55.8389C1045.64 58.3349 1047.55 62.2093 1047.55 66.3183H1048.71C1048.71 61.8494 1046.63 57.6356 1043.08 54.9209L1042.37 55.8389ZM109.643 59.0532L120.042 37.1608L118.998 36.6649L108.599 58.5574L109.643 59.0532ZM148.675 18.4399L157.763 18.1602L157.728 17.0052L148.64 17.2849L148.675 18.4399ZM952.242 58.5574L941.843 36.6649L940.799 37.1608L951.198 59.0532L952.242 58.5574ZM912.202 17.2849L903.114 17.0052L903.078 18.1602L912.166 18.4399L912.202 17.2849Z" fill="white"/>
<path opacity="0.3" d="M544.29 23.113H165.166C153.719 23.113 147.996 23.113 142.983 24.7964C137.565 26.616 132.725 29.8384 128.956 34.1357C125.47 38.1114 123.262 43.392 118.848 53.9531L113.757 66.1316C112.987 67.9729 112.602 68.8941 112.211 69.7233C105.63 83.7034 91.8416 92.8838 76.4046 93.5644C75.4889 93.6047 74.4909 93.6047 72.4948 93.6047H23.7002C13.8975 93.6047 6.04082 85.4905 6.35687 75.6929M10.4015 56.6255L13.0558 61.6686C14.7979 64.9787 18.8501 66.3126 22.2178 64.6845L36.2937 57.8796C51.449 50.5528 68.7495 48.9794 84.9779 53.4518C91.9138 55.3633 99.3102 52.7995 103.575 47.0055L116.182 29.8795C117.413 28.207 118.029 27.3708 118.661 26.61C124.365 19.7491 132.569 15.446 141.457 14.6541C142.442 14.5663 143.48 14.5353 145.556 14.4734L160.632 14.0233C163.528 13.9369 165.83 11.5647 165.83 8.66797M543.712 23.113H895.679C907.126 23.113 912.849 23.113 917.862 24.7964C923.28 26.616 928.12 29.8384 931.888 34.1357C935.375 38.1114 937.582 43.392 941.997 53.9531L947.088 66.1316C947.858 67.9729 948.243 68.8941 948.634 69.7233C955.215 83.7034 969.003 92.8838 984.44 93.5644C985.356 93.6047 986.354 93.6047 988.35 93.6047H1037.14C1046.95 93.6047 1054.8 85.4905 1054.49 75.6929M1050.44 56.6255L1047.79 61.6686C1046.05 64.9787 1041.99 66.3126 1038.63 64.6845L1024.55 57.8796C1009.4 50.5528 992.095 48.9794 975.867 53.4518C968.931 55.3633 961.535 52.7995 957.27 47.0055L944.663 29.8795C943.432 28.207 942.816 27.3708 942.184 26.61C936.48 19.7491 928.275 15.446 919.388 14.6541C918.403 14.5663 917.365 14.5353 915.289 14.4734L900.213 14.0233C897.317 13.9369 895.015 11.5647 895.015 8.66797" stroke="white" stroke-width="1.1556"/>
<path d="M164.078 6.93359H81.7831C65.2994 6.93359 49.1032 11.252 34.8077 19.4587C28.6376 23.0008 23.3807 27.9359 19.4564 33.8702L16.265 38.6962C12.7886 43.9532 10.8197 49.8661 10.3346 55.8602C4.20581 74.7328 4.50363 101.164 4.98482 143.87L6.05106 238.499C6.90157 313.982 7.32683 351.723 26.7785 378.119C33.0635 386.648 40.6427 394.142 49.2417 400.33C75.855 419.484 113.599 419.484 189.087 419.484H871.758C947.246 419.484 984.99 419.484 1011.6 400.33C1020.2 394.142 1027.78 386.648 1034.07 378.119C1053.52 351.723 1053.94 313.982 1054.79 238.499L1055.86 143.87C1056.34 101.164 1056.64 74.7326 1050.51 55.8599C1050.03 49.8659 1048.06 43.9532 1044.58 38.6962L1041.39 33.8702C1037.46 27.9359 1032.21 23.0008 1026.04 19.4587C1011.74 11.252 995.545 6.93359 979.062 6.93359H896.767C895.507 6.93359 894.504 7.98808 894.566 9.2448H166.279C166.341 7.98808 165.338 6.93359 164.078 6.93359Z" stroke="white" stroke-width="3.46681"/>
</svg>
