<?xml version="1.0" encoding="UTF-8" standalone="no"?>
<!-- Created with Inkscape (http://www.inkscape.org/) -->

<svg
   width="210mm"
   height="297mm"
   viewBox="0 0 210 297"
   version="1.1"
   id="svg37033"
   inkscape:version="1.1.2 (0a00cf5339, 2022-02-04)"
   sodipodi:docname="wip_steamdeck.svg"
   xmlns:inkscape="http://www.inkscape.org/namespaces/inkscape"
   xmlns:sodipodi="http://sodipodi.sourceforge.net/DTD/sodipodi-0.dtd"
   xmlns:xlink="http://www.w3.org/1999/xlink"
   xmlns="http://www.w3.org/2000/svg"
   xmlns:svg="http://www.w3.org/2000/svg">
  <sodipodi:namedview
     id="namedview37035"
     pagecolor="#ffffff"
     bordercolor="#666666"
     borderopacity="1.0"
     inkscape:pageshadow="2"
     inkscape:pageopacity="0.0"
     inkscape:pagecheckerboard="0"
     inkscape:document-units="mm"
     showgrid="false"
     inkscape:zoom="1.5622219"
     inkscape:cx="597.2263"
     inkscape:cy="908.64173"
     inkscape:window-width="1536"
     inkscape:window-height="826"
     inkscape:window-x="0"
     inkscape:window-y="0"
     inkscape:window-maximized="1"
     inkscape:current-layer="g37052" />
  <defs
     id="defs37030">
    <linearGradient
       inkscape:collect="always"
       id="linearGradient37404">
      <stop
         style="stop-color:#000000;stop-opacity:1;"
         offset="0"
         id="stop37400" />
      <stop
         style="stop-color:#000000;stop-opacity:0;"
         offset="1"
         id="stop37402" />
    </linearGradient>
    <linearGradient
       inkscape:collect="always"
       id="linearGradient37355">
      <stop
         style="stop-color:#000000;stop-opacity:1;"
         offset="0"
         id="stop37351" />
      <stop
         style="stop-color:#000000;stop-opacity:0;"
         offset="1"
         id="stop37353" />
    </linearGradient>
    <linearGradient
       inkscape:collect="always"
       id="linearGradient37303">
      <stop
         style="stop-color:#000000;stop-opacity:1;"
         offset="0"
         id="stop37299" />
      <stop
         style="stop-color:#000000;stop-opacity:0;"
         offset="1"
         id="stop37301" />
    </linearGradient>
    <linearGradient
       inkscape:collect="always"
       xlink:href="#linearGradient37303"
       id="linearGradient37305"
       x1="3.0143284"
       y1="213.20881"
       x2="1057.8301"
       y2="213.20881"
       gradientUnits="userSpaceOnUse" />
    <linearGradient
       inkscape:collect="always"
       xlink:href="#linearGradient37303"
       id="linearGradient37307"
       gradientUnits="userSpaceOnUse"
       x1="3.0143284"
       y1="213.20881"
       x2="1057.8301"
       y2="213.20881" />
    <linearGradient
       inkscape:collect="always"
       xlink:href="#linearGradient37303"
       id="linearGradient37309"
       gradientUnits="userSpaceOnUse"
       x1="3.0143284"
       y1="213.20881"
       x2="1057.8301"
       y2="213.20881" />
    <linearGradient
       inkscape:collect="always"
       xlink:href="#linearGradient37303"
       id="linearGradient37311"
       gradientUnits="userSpaceOnUse"
       x1="3.0143284"
       y1="213.20881"
       x2="1057.8301"
       y2="213.20881" />
    <linearGradient
       inkscape:collect="always"
       xlink:href="#linearGradient37355"
       id="linearGradient37357"
       x1="2.7319721"
       y1="205.50986"
       x2="1021.8565"
       y2="205.50986"
       gradientUnits="userSpaceOnUse" />
    <linearGradient
       inkscape:collect="always"
       xlink:href="#linearGradient37355"
       id="linearGradient37359"
       gradientUnits="userSpaceOnUse"
       x1="2.7319721"
       y1="205.50986"
       x2="1021.8565"
       y2="205.50986" />
    <linearGradient
       inkscape:collect="always"
       xlink:href="#linearGradient37355"
       id="linearGradient37361"
       gradientUnits="userSpaceOnUse"
       x1="2.7319721"
       y1="205.50986"
       x2="1021.8565"
       y2="205.50986" />
    <linearGradient
       inkscape:collect="always"
       xlink:href="#linearGradient37355"
       id="linearGradient37363"
       gradientUnits="userSpaceOnUse"
       x1="2.7319721"
       y1="205.50986"
       x2="1021.8565"
       y2="205.50986" />
    <linearGradient
       inkscape:collect="always"
       xlink:href="#linearGradient37355"
       id="linearGradient37365"
       gradientUnits="userSpaceOnUse"
       x1="2.7319721"
       y1="205.50986"
       x2="1021.8565"
       y2="205.50986" />
    <linearGradient
       inkscape:collect="always"
       xlink:href="#linearGradient37404"
       id="linearGradient37406"
       x1="1.8925755"
       y1="128.77257"
       x2="1057.7972"
       y2="128.77257"
       gradientUnits="userSpaceOnUse" />
  </defs>
  <g
     inkscape:label="Layer 1"
     inkscape:groupmode="layer"
     id="layer1">
    <g
       style="fill:none"
       id="g37052"
       transform="matrix(0.26458333,0,0,0.26458333,-75.671525,-1.8018183)">
      <g
         style="fill:url(#linearGradient37305);fill-opacity:1"
         id="g37297"
         transform="translate(82.562345,32.221516)">
        <path
           d="m 152.034,410.192 -0.064,0.574 z m 2.367,0.261 0.064,-0.575 z m 753.251,-0.261 0.063,0.574 z m -2.368,0.261 -0.063,-0.575 z M 109.121,58.8053 108.599,58.5574 v 0 z m 48.624,-41.2226 -0.017,-0.5775 v 0 z m -141.4818,21.1135 0.482,0.3187 z m 3.1914,-4.826 -0.482,-0.3187 z m 15.3513,-14.4115 0.2877,0.5011 z m -16.7786,61.9089 -0.454,0.3574 v 0 z M 166.277,9.25986 l 0.577,0.03205 v 0 z m -46.757,27.65294 -0.521,-0.249 -10e-4,0.0011 z m 29.137,-19.0504 -0.017,-0.5775 h -0.002 z m -68.9455,69.1424 -0.121,-0.565 z m 21.5875,-13.645 0.458,0.3518 z m 9.24,-45.5172 0.22,-0.5343 z m 2.437,1.0034 0.22,-0.5343 z m 5.449,6.3063 -0.56,0.1401 z m -23.8242,-7.9032 -0.03,-0.577 z m 9.5552,-0.4976 0.03,0.577 z m -86.0396,28.6284 0.351,0.459 z m 933.6036,3.4254 0.522,-0.2479 v 0 z m -48.624,-41.2226 0.018,-0.5775 z m 141.484,21.1135 0.48,-0.3187 v 0 z m -3.19,-4.826 -0.49,0.3187 v 0 z m -15.35,-14.4115 -0.29,0.5011 z m 16.77,61.9089 0.46,0.3574 v 0 z M 894.565,9.25986 893.988,9.29191 v 0 z m 46.756,27.65294 0.522,-0.2479 v -0.0011 z m -29.137,-19.0504 0.019,-0.5775 h -10e-4 z m 68.946,69.1424 0.121,-0.565 z m -21.588,-13.645 -0.458,0.3518 z m -9.24,-45.5172 0.22,0.5343 z m -2.437,1.0034 -0.22,-0.5343 v 0 z m -5.449,6.3063 0.561,0.1401 v 0 z m 23.825,-7.9032 0.03,-0.577 z m -9.555,-0.4976 -0.03,0.577 z m 86.034,28.6284 -0.35,0.459 z M 253.654,273.3 v 60.091 h 1.156 V 273.3 Z m -25.423,60.091 V 273.3 h -1.156 v 60.091 z m 12.711,12.712 c -7.02,0 -12.711,-5.691 -12.711,-12.712 h -1.156 c 0,7.659 6.209,13.867 13.867,13.867 z m 12.712,-12.712 c 0,7.021 -5.691,12.712 -12.712,12.712 v 1.155 c 7.659,0 13.868,-6.208 13.868,-13.867 z m -12.712,-72.803 c 7.021,0 12.712,5.691 12.712,12.712 h 1.156 c 0,-7.659 -6.209,-13.867 -13.868,-13.867 z m 0,-1.155 c -7.658,0 -13.867,6.208 -13.867,13.867 h 1.156 c 0,-7.021 5.691,-12.712 12.711,-12.712 z m 46.224,13.867 v 60.091 h 1.156 V 273.3 Z m -25.423,60.091 V 273.3 h -1.155 v 60.091 z m 12.712,12.712 c -7.021,0 -12.712,-5.691 -12.712,-12.712 h -1.155 c 0,7.659 6.208,13.867 13.867,13.867 z m 12.711,-12.712 c 0,7.021 -5.691,12.712 -12.711,12.712 v 1.155 c 7.658,0 13.867,-6.208 13.867,-13.867 z m -12.711,-72.803 c 7.02,0 12.711,5.691 12.711,12.712 h 1.156 c 0,-7.659 -6.209,-13.867 -13.867,-13.867 z m 0,-1.155 c -7.659,0 -13.867,6.208 -13.867,13.867 h 1.155 c 0,-7.021 5.691,-12.712 12.712,-12.712 z m 46.224,13.867 v 60.091 h 1.156 V 273.3 Z m -25.423,60.091 V 273.3 H 294.1 v 60.091 z m 12.711,12.712 c -7.02,0 -12.711,-5.691 -12.711,-12.712 H 294.1 c 0,7.659 6.209,13.867 13.867,13.867 z m 12.712,-12.712 c 0,7.021 -5.691,12.712 -12.712,12.712 v 1.155 c 7.659,0 13.868,-6.208 13.868,-13.867 z m -12.712,-72.803 c 7.021,0 12.712,5.691 12.712,12.712 h 1.156 c 0,-7.659 -6.209,-13.867 -13.868,-13.867 z m 0,-1.155 c -7.658,0 -13.867,6.208 -13.867,13.867 h 1.156 c 0,-7.021 5.691,-12.712 12.711,-12.712 z m 46.224,13.867 v 60.091 h 1.156 V 273.3 Z m -25.423,60.091 V 273.3 h -1.155 v 60.091 z m 12.712,12.712 c -7.021,0 -12.712,-5.691 -12.712,-12.712 h -1.155 c 0,7.659 6.208,13.867 13.867,13.867 z m 12.711,-12.712 c 0,7.021 -5.691,12.712 -12.711,12.712 v 1.155 c 7.658,0 13.867,-6.208 13.867,-13.867 z M 341.48,260.588 c 7.02,0 12.711,5.691 12.711,12.712 h 1.156 c 0,-7.659 -6.209,-13.867 -13.867,-13.867 z m 0,-1.155 c -7.659,0 -13.867,6.208 -13.867,13.867 h 1.155 c 0,-7.021 5.691,-12.712 12.712,-12.712 z m 46.224,13.867 v 60.091 h 1.155 V 273.3 Z m -25.423,60.091 V 273.3 h -1.156 v 60.091 z m 12.711,12.712 c -7.02,0 -12.711,-5.691 -12.711,-12.712 h -1.156 c 0,7.659 6.209,13.867 13.867,13.867 z m 12.712,-12.712 c 0,7.021 -5.691,12.712 -12.712,12.712 v 1.155 c 7.659,0 13.867,-6.208 13.867,-13.867 z m -12.712,-72.803 c 7.021,0 12.712,5.691 12.712,12.712 h 1.155 c 0,-7.659 -6.208,-13.867 -13.867,-13.867 z m 0,-1.155 c -7.658,0 -13.867,6.208 -13.867,13.867 h 1.156 c 0,-7.021 5.691,-12.712 12.711,-12.712 z m 46.224,13.867 v 60.091 h 1.156 V 273.3 Z m -25.423,60.091 V 273.3 h -1.156 v 60.091 z m 12.712,12.712 c -7.021,0 -12.712,-5.691 -12.712,-12.712 h -1.156 c 0,7.659 6.209,13.867 13.868,13.867 z m 12.711,-12.712 c 0,7.021 -5.691,12.712 -12.711,12.712 v 1.155 c 7.658,0 13.867,-6.208 13.867,-13.867 z m -12.711,-72.803 c 7.02,0 12.711,5.691 12.711,12.712 h 1.156 c 0,-7.659 -6.209,-13.867 -13.867,-13.867 z m 0,-1.155 c -7.659,0 -13.868,6.208 -13.868,13.867 h 1.156 c 0,-7.021 5.691,-12.712 12.712,-12.712 z M 119.026,182.007 h 48.536 v -1.155 h -48.536 z m 59.514,10.979 v 48.535 h 1.155 v -48.535 z m -10.978,59.513 h -48.536 v 1.156 h 48.536 z m -59.514,-10.978 v -48.535 h -1.155 v 48.535 z m 10.978,10.978 c -6.063,0 -10.978,-4.915 -10.978,-10.978 h -1.155 c 0,6.701 5.432,12.134 12.133,12.134 z m 59.514,-10.978 c 0,6.063 -4.915,10.978 -10.978,10.978 v 1.156 c 6.701,0 12.133,-5.433 12.133,-12.134 z m -10.978,-59.514 c 6.063,0 10.978,4.915 10.978,10.979 h 1.155 c 0,-6.702 -5.432,-12.134 -12.133,-12.134 z m -48.536,-1.155 c -6.701,0 -12.133,5.432 -12.133,12.134 h 1.155 c 0,-6.064 4.915,-10.979 10.978,-10.979 z m 0,82.047 h 48.536 v -1.155 h -48.536 z m 59.514,10.979 v 48.535 h 1.155 v -48.535 z m -10.978,59.513 h -48.536 v 1.156 h 48.536 z m -59.514,-10.978 v -48.535 h -1.155 v 48.535 z m 10.978,10.978 c -6.063,0 -10.978,-4.915 -10.978,-10.978 h -1.155 c 0,6.701 5.432,12.134 12.133,12.134 z m 59.514,-10.978 c 0,6.063 -4.915,10.978 -10.978,10.978 v 1.156 c 6.701,0 12.133,-5.433 12.133,-12.134 z m -10.978,-59.514 c 6.063,0 10.978,4.916 10.978,10.979 h 1.155 c 0,-6.702 -5.432,-12.134 -12.133,-12.134 z m -48.536,-1.155 c -6.701,0 -12.133,5.432 -12.133,12.134 h 1.155 c 0,-6.063 4.915,-10.979 10.978,-10.979 z m 773.098,-79.737 h 48.535 v -1.155 h -48.535 z m 59.514,10.979 v 48.535 h 1.155 v -48.535 z m -10.979,59.513 h -48.535 v 1.156 h 48.535 z m -59.513,-10.978 v -48.535 h -1.156 v 48.535 z m 10.978,10.978 c -6.063,0 -10.978,-4.915 -10.978,-10.978 h -1.156 c 0,6.701 5.433,12.134 12.134,12.134 z m 59.514,-10.978 c 0,6.063 -4.915,10.978 -10.979,10.978 v 1.156 c 6.702,0 12.134,-5.433 12.134,-12.134 z m -10.979,-59.514 c 6.064,0 10.979,4.915 10.979,10.979 h 1.155 c 0,-6.702 -5.432,-12.134 -12.134,-12.134 z m -48.535,-1.155 c -6.701,0 -12.134,5.432 -12.134,12.134 h 1.156 c 0,-6.064 4.915,-10.979 10.978,-10.979 z m 0,82.047 h 48.535 v -1.155 h -48.535 z m 59.514,10.979 v 48.535 h 1.155 v -48.535 z m -10.979,59.513 h -48.535 v 1.156 h 48.535 z m -59.513,-10.978 v -48.535 h -1.156 v 48.535 z m 10.978,10.978 c -6.063,0 -10.978,-4.915 -10.978,-10.978 h -1.156 c 0,6.701 5.433,12.134 12.134,12.134 z m 59.514,-10.978 c 0,6.063 -4.915,10.978 -10.979,10.978 v 1.156 c 6.702,0 12.134,-5.433 12.134,-12.134 z m -10.979,-59.514 c 6.064,0 10.979,4.916 10.979,10.979 h 1.155 c 0,-6.702 -5.432,-12.134 -12.134,-12.134 z m -48.535,-1.155 c -6.701,0 -12.134,5.432 -12.134,12.134 h 1.156 c 0,-6.063 4.915,-10.979 10.978,-10.979 z M 5.77734,154.273 H 65.8687 v -1.156 H 5.77734 Z m 78.00316,17.912 v 162.456 h 1.1556 V 172.185 Z m 68.1895,238.581 2.368,0.261 0.127,-1.149 -2.368,-0.261 z m 2.368,0.261 c 5.003,0.552 9.253,3.91 10.946,8.651 l 1.088,-0.389 c -1.841,-5.157 -6.464,-8.81 -11.907,-9.411 z M 83.7805,334.641 c 0,39.048 29.3775,71.844 68.1895,76.125 l 0.127,-1.149 C 113.87,405.401 84.9361,373.1 84.9361,334.641 Z M 65.8687,154.273 c 9.8924,0 17.9118,8.019 17.9118,17.912 h 1.1556 c 0,-10.531 -8.5368,-19.068 -19.0674,-19.068 z m 988.0413,-1.156 h -60.093 v 1.156 h 60.093 z m -79.16,19.068 v 162.456 h 1.155 V 172.185 Z m -67.161,237.432 -2.368,0.261 0.127,1.149 2.367,-0.261 z m -2.368,0.261 c -5.443,0.601 -10.066,4.254 -11.908,9.411 l 1.089,0.389 c 1.693,-4.741 5.942,-8.099 10.946,-8.651 z m 69.529,-75.237 c 0,38.459 -28.934,70.76 -67.161,74.976 l 0.126,1.149 c 38.813,-4.281 68.19,-37.077 68.19,-76.125 z m 19.067,-181.524 c -10.531,0 -19.067,8.537 -19.067,19.068 h 1.155 c 0,-9.893 8.02,-17.912 17.912,-17.912 z M 81.7813,7.51139 H 164.076 V 6.35579 H 81.7813 Z M 31.3306,88.4035 h 31.878 v -1.1556 h -31.878 z m -14.5854,-49.3886 3.1913,-4.826 -0.9639,-0.6374 -3.1914,4.826 z m 3.1913,-4.826 C 23.8112,28.3297 29.0016,23.4571 35.0936,19.9598 L 34.5182,18.9576 C 28.27,22.5445 22.9466,27.5421 18.9726,33.5515 Z M 18.4813,81.0102 C 8.9086,68.8503 8.20882,51.9235 16.7452,39.0149 l -0.964,-0.6374 C 6.97005,51.7017 7.69236,69.1735 17.5733,81.725 Z m 139.2817,-62.85 c 4.872,-0.1499 8.82,-4.0014 9.091,-8.86829 L 165.7,9.22781 c -0.237,4.26819 -3.7,7.64589 -7.972,7.77739 z m -37.721,19.0017 c 5.3,-11.0976 16.343,-18.3173 28.634,-18.722 l -0.038,-1.155 c -12.723,0.4189 -24.152,7.8919 -29.639,19.3789 z M 63.2086,88.4035 c 8.4217,0 12.7189,0.0031 16.624,-0.8338 l -0.2421,-1.1299 c -3.7568,0.8051 -7.9076,0.8081 -16.3819,0.8081 z M 108.599,58.5574 c -3.636,7.6546 -5.419,11.4027 -7.758,14.4506 l 0.916,0.7036 c 2.432,-3.1684 4.273,-7.0512 7.886,-14.6584 z M 79.8326,87.5697 C 88.5547,85.7006 96.3267,80.788 101.757,73.7116 L 100.841,73.008 C 95.577,79.8667 88.0441,84.6281 79.5905,86.4398 Z m -48.502,-0.3218 c -5.0128,0 -9.7486,-2.299 -12.8493,-6.2377 l -0.908,0.7148 c 3.3198,4.217 8.3903,6.6785 13.7573,6.6785 z M 164.076,7.51139 c 0.934,0 1.676,0.78428 1.624,1.71642 l 1.154,0.0641 c 0.088,-1.59454 -1.181,-2.93612 -2.778,-2.93612 z M 81.7813,6.35579 c -16.5846,0 -32.88,4.34481 -47.2631,12.60181 l 0.5754,1.0022 C 49.3016,11.8033 65.3986,7.51139 81.7813,7.51139 Z m 28.5377,22.02111 2.437,1.0034 0.44,-1.0686 -2.437,-1.0034 z m 7.546,6.9155 0.601,2.4048 1.121,-0.2803 -0.601,-2.4047 z m -23.2341,-7.4663 9.5551,-0.4976 -0.06,-1.1541 -9.5552,0.4977 z M 12.1332,66.3183 v 5.9068 h 1.1556 V 66.3183 Z M 18.4674,55.8389 C 40.4474,39.0307 66.9982,29.2653 94.6309,27.8261 l -0.0601,-1.154 C 66.7052,28.1234 39.9306,37.9711 17.7654,54.9209 Z M 112.756,29.3803 c 2.545,1.0479 4.441,3.2421 5.109,5.9121 l 1.121,-0.2802 c -0.757,-3.026 -2.905,-5.5129 -5.79,-6.7005 z m -1.997,-2.072 c -2.1,-0.8647 -4.365,-1.252 -6.633,-1.1339 l 0.06,1.1541 c 2.097,-0.1092 4.192,0.2489 6.133,1.0484 z M 17.7654,54.9209 c -3.5499,2.7147 -5.6322,6.9285 -5.6322,11.3974 h 1.1556 c 0,-4.109 1.9146,-7.9834 5.1786,-10.4794 z M 979.06,6.35579 h -82.295 v 1.1556 h 82.295 z m 50.45,80.89211 h -31.877 v 1.1556 h 31.877 z m 15.55,-48.8704 -3.19,-4.826 -0.97,0.6374 3.2,4.826 z m -3.19,-4.826 c -3.98,-6.0094 -9.3,-11.007 -15.55,-14.5939 l -0.57,1.0022 c 6.09,3.4973 11.28,8.3699 15.15,14.2291 z m 1.4,48.1735 c 9.88,-12.5515 10.6,-30.0233 1.79,-43.3475 l -0.96,0.6374 c 8.53,12.9086 7.83,29.8354 -1.74,41.9953 z M 903.114,17.0052 c -4.273,-0.1315 -7.735,-3.5092 -7.973,-7.77739 l -1.153,0.0641 c 0.27,4.86689 4.218,8.71839 9.09,8.86829 z m 38.729,19.6586 c -5.487,-11.487 -16.917,-18.96 -29.64,-19.3789 l -0.038,1.155 c 12.292,0.4047 23.334,7.6244 28.635,18.722 z m 55.79,50.5841 c -8.474,0 -12.625,-0.003 -16.382,-0.8081 l -0.242,1.1299 c 3.905,0.8369 8.202,0.8338 16.624,0.8338 z M 951.198,59.0532 c 3.614,7.6072 5.455,11.49 7.886,14.6584 l 0.917,-0.7036 c -2.339,-3.0479 -4.123,-6.796 -7.759,-14.4506 z m 30.053,27.3866 c -8.454,-1.8117 -15.987,-6.5731 -21.25,-13.4318 l -0.917,0.7036 c 5.431,7.0764 13.203,11.989 21.925,13.8581 z m 48.259,1.9637 c 5.37,0 10.44,-2.4615 13.76,-6.6785 l -0.91,-0.7148 c -3.1,3.9387 -7.84,6.2377 -12.85,6.2377 z M 896.765,6.35579 c -1.597,0 -2.866,1.34159 -2.777,2.93612 l 1.153,-0.0641 c -0.051,-0.93215 0.691,-1.71642 1.624,-1.71642 z m 82.295,1.1556 c 16.383,0 32.48,4.29191 46.69,12.44841 l 0.57,-1.0022 C 1011.94,10.7006 995.645,6.35579 979.06,6.35579 Z m -28.978,19.79691 -2.437,1.0034 0.44,1.0686 2.437,-1.0034 z m -8.226,7.7038 -0.601,2.4048 1.121,0.2803 0.601,-2.4048 z m 24.415,-8.34 -9.555,-0.4977 -0.06,1.1541 9.555,0.4976 z m 81.279,39.6462 v 5.9068 h 1.16 v -5.9068 z m -4.47,-11.3974 C 1020.91,37.9711 994.136,28.1234 966.271,26.6721 l -0.06,1.154 c 27.632,1.4392 54.179,11.2046 76.159,28.0128 z M 947.645,28.3117 c -2.884,1.1876 -5.033,3.6745 -5.789,6.7005 l 1.121,0.2802 c 0.667,-2.67 2.563,-4.8642 5.108,-5.9121 z m 2.877,0.0652 c 1.942,-0.7995 4.037,-1.1576 6.134,-1.0484 l 0.06,-1.1541 c -2.268,-0.1181 -4.534,0.2692 -6.634,1.1339 z m 91.848,27.462 c 3.27,2.496 5.18,6.3704 5.18,10.4794 h 1.16 c 0,-4.4689 -2.08,-8.6827 -5.63,-11.3974 z m -932.727,3.2143 10.399,-21.8924 -1.044,-0.4959 -10.399,21.8925 z m 39.032,-40.6133 9.088,-0.2797 -0.035,-1.155 -9.088,0.2797 z m 803.567,40.1175 -10.399,-21.8925 -1.044,0.4959 10.399,21.8924 z m -40.04,-41.2725 -9.088,-0.2797 -0.036,1.155 9.088,0.2797 z"
           fill="#ffffff"
           id="path37282"
           style="fill:url(#linearGradient37307);fill-opacity:1" />
        <path
           opacity="0.3"
           d="M 544.29,23.113 H 165.166 c -11.447,0 -17.17,0 -22.183,1.6834 -5.418,1.8196 -10.258,5.042 -14.027,9.3393 -3.486,3.9757 -5.694,9.2563 -10.108,19.8174 l -5.091,12.1785 c -0.77,1.8413 -1.155,2.7625 -1.546,3.5917 -6.581,13.9801 -20.3694,23.1605 -35.8064,23.8411 -0.9157,0.0403 -1.9137,0.0403 -3.9098,0.0403 H 23.7002 c -9.8027,0 -17.65938,-8.1142 -17.34333,-17.9118 m 4.04463,-19.0674 2.6543,5.0431 c 1.7421,3.3101 5.7943,4.644 9.162,3.0159 l 14.0759,-6.8049 c 15.1553,-7.3268 32.4558,-8.9002 48.6842,-4.4278 6.9359,1.9115 14.3323,-0.6523 18.5971,-6.4463 l 12.607,-17.126 c 1.231,-1.6725 1.847,-2.5087 2.479,-3.2695 5.704,-6.8609 13.908,-11.164 22.796,-11.9559 0.985,-0.0878 2.023,-0.1188 4.099,-0.1807 l 15.076,-0.4501 c 2.896,-0.0864 5.198,-2.4586 5.198,-5.35533 M 543.712,23.113 h 351.967 c 11.447,0 17.17,0 22.183,1.6834 5.418,1.8196 10.258,5.042 14.026,9.3393 3.487,3.9757 5.694,9.2563 10.109,19.8174 l 5.091,12.1785 c 0.77,1.8413 1.155,2.7625 1.546,3.5917 6.581,13.9801 20.369,23.1605 35.806,23.8411 0.916,0.0403 1.914,0.0403 3.91,0.0403 h 48.79 c 9.81,0 17.66,-8.1142 17.35,-17.9118 m -4.05,-19.0674 -2.65,5.0431 c -1.74,3.3101 -5.8,4.644 -9.16,3.0159 l -14.08,-6.8049 c -15.15,-7.3268 -32.455,-8.9002 -48.683,-4.4278 -6.936,1.9115 -14.332,-0.6523 -18.597,-6.4463 l -12.607,-17.126 c -1.231,-1.6725 -1.847,-2.5087 -2.479,-3.2695 -5.704,-6.8609 -13.909,-11.164 -22.796,-11.9559 -0.985,-0.0878 -2.023,-0.1188 -4.099,-0.1807 l -15.076,-0.4501 c -2.896,-0.0864 -5.198,-2.4586 -5.198,-5.35533"
           stroke="#ffffff"
           stroke-width="1.1556"
           id="path37284"
           style="fill:url(#linearGradient37309);fill-opacity:1" />
        <path
           d="M 164.078,6.93359 H 81.7831 c -16.4837,0 -32.6799,4.31841 -46.9754,12.52511 -6.1701,3.5421 -11.427,8.4772 -15.3513,14.4115 l -3.1914,4.826 c -3.4764,5.257 -5.4453,11.1699 -5.9304,17.164 C 4.20581,74.7328 4.50363,101.164 4.98482,143.87 l 1.06624,94.629 c 0.85051,75.483 1.27577,113.224 20.72744,139.62 6.285,8.529 13.8642,16.023 22.4632,22.211 26.6133,19.154 64.3573,19.154 139.8453,19.154 h 682.671 c 75.488,0 113.232,0 139.842,-19.154 8.6,-6.188 16.18,-13.682 22.47,-22.211 19.45,-26.396 19.87,-64.137 20.72,-139.62 l 1.07,-94.629 c 0.48,-42.706 0.78,-69.1374 -5.35,-88.0101 -0.48,-5.994 -2.45,-11.9067 -5.93,-17.1637 l -3.19,-4.826 c -3.93,-5.9343 -9.18,-10.8694 -15.35,-14.4115 C 1011.74,11.252 995.545,6.93359 979.062,6.93359 h -82.295 c -1.26,0 -2.263,1.05449 -2.201,2.31121 H 166.279 c 0.062,-1.25672 -0.941,-2.31121 -2.201,-2.31121 z"
           stroke="#ffffff"
           stroke-width="3.46681"
           id="path37286"
           style="fill:url(#linearGradient37311);fill-opacity:1" />
      </g>
      <g
         style="fill:url(#linearGradient37357);fill-opacity:1"
         id="g37331"
         transform="translate(104.01718,559.83519)">
        <path
           d="m 34.8352,20.8957 c 0,0 6.7071,-11.35593 31.423,-14.82752 17.2534,-2.4224 91.9298,-1.08005 91.9298,-1.08005 0,0 8.711,1.24977 8.711,5.63167 m 820.504,10.2759 c 0,0 -6.707,-11.35593 -31.423,-14.82752 -17.254,-2.4224 -91.93,-1.08005 -91.93,-1.08005 0,0 -8.711,1.24977 -8.711,5.63167 M 3.34961,149.594 H 49.1214 c 9.865,0 17.8622,7.998 17.8622,17.863 v 68.904 c 0,14.732 4.5539,29.104 13.0381,41.147 l 79.5873,112.977 c 2.928,4.158 4.5,9.119 4.5,14.204 M 1020.38,149.594 h -45.774 c -9.865,0 -17.863,7.998 -17.863,17.863 v 68.904 c 0,14.732 -4.553,29.104 -13.038,41.147 l -79.587,112.977 c -2.928,4.158 -4.5,9.119 -4.5,14.204 M 192.587,256.887 h -79.945 c -7.617,0 -13.7847,-6.172 -13.7847,-13.794 v -79.985 c 0,-7.623 6.1677,-13.794 13.7847,-13.794 h 79.929 c 7.617,0 13.785,6.171 13.785,13.794 v 79.985 c 0.015,7.622 -6.168,13.794 -13.769,13.794 z m 2.975,42.723 h -32.147 c -5.967,0 -10.809,-4.844 -10.809,-10.815 0,-5.972 4.842,-10.816 10.809,-10.816 h 32.147 c 5.967,0 10.809,4.844 10.809,10.816 0,5.971 -4.842,10.815 -10.809,10.815 z M 129.975,40.1229 h -16.31 c -3.685,0 -6.66,-2.9933 -6.66,-6.6654 0,-3.6876 2.991,-6.6655 6.66,-6.6655 h 16.31 c 3.685,0 6.661,2.9933 6.661,6.6655 0.016,3.6721 -2.976,6.6654 -6.661,6.6654 z m 67.861,49.8865 c 0,18.8836 -15.297,34.1916 -34.167,34.1916 -18.87,0 -34.168,-15.308 -34.168,-34.1916 0,-18.8834 15.298,-34.1914 34.168,-34.1914 18.87,0 34.167,15.308 34.167,34.1914 z m -11.014,0.6256 c 0,13.063 -10.582,23.653 -23.637,23.653 -13.054,0 -23.636,-10.59 -23.636,-23.653 0,-13.0632 10.582,-23.6531 23.636,-23.6531 13.055,0 23.637,10.5899 23.637,23.6531 z m 19.889,254.646 h -7.832 c -1.188,0 -2.159,-0.972 -2.159,-2.16 0,-1.188 0.971,-2.16 2.159,-2.16 h 7.832 c 1.187,0 2.159,0.972 2.159,2.16 0.015,1.204 -0.956,2.16 -2.159,2.16 z m -14.911,0 h -7.832 c -1.188,0 -2.159,-0.972 -2.159,-2.16 0,-1.188 0.971,-2.16 2.159,-2.16 h 7.832 c 1.187,0 2.159,0.972 2.159,2.16 0,1.204 -0.956,2.16 -2.159,2.16 z m -14.909,0 h -7.832 c -1.187,0 -2.159,-0.972 -2.159,-2.16 0,-1.188 0.972,-2.16 2.159,-2.16 h 7.832 c 1.188,0 2.159,0.972 2.159,2.16 0,1.204 -0.971,2.16 -2.159,2.16 z m 29.819,-21.277 h -7.833 c -1.187,0 -2.158,-0.972 -2.158,-2.16 0,-1.188 0.971,-2.16 2.158,-2.16 h 7.833 c 1.187,0 2.159,0.972 2.159,2.16 0.015,1.188 -0.956,2.16 -2.159,2.16 z m -14.863,0 h -7.833 c -1.187,0 -2.158,-0.972 -2.158,-2.16 0,-1.188 0.971,-2.16 2.158,-2.16 h 7.833 c 1.187,0 2.159,0.972 2.159,2.16 0,1.188 -0.972,2.16 -2.159,2.16 z m -14.879,0 h -7.833 c -1.187,0 -2.158,-0.972 -2.158,-2.16 0,-1.188 0.971,-2.16 2.158,-2.16 h 7.833 c 1.187,0 2.158,0.972 2.158,2.16 0,1.188 -0.956,2.16 -2.158,2.16 z m -14.863,0 h -7.833 c -1.187,0 -2.158,-0.972 -2.158,-2.16 0,-1.188 0.971,-2.16 2.158,-2.16 h 7.833 c 1.187,0 2.158,0.972 2.158,2.16 0,1.188 -0.971,2.16 -2.158,2.16 z m 44.606,10.631 h -15.157 c -1.187,0 -2.158,-0.972 -2.158,-2.16 0,-1.188 0.971,-2.16 2.158,-2.16 h 15.157 c 1.187,0 2.158,0.972 2.158,2.16 0.016,1.203 -0.956,2.16 -2.158,2.16 z m -22.095,0 h -7.833 c -1.187,0 -2.159,-0.972 -2.159,-2.16 0,-1.188 0.972,-2.16 2.159,-2.16 h 7.833 c 1.187,0 2.158,0.972 2.158,2.16 0,1.203 -0.971,2.16 -2.158,2.16 z m -15.219,0 h -7.832 c -1.188,0 -2.159,-0.972 -2.159,-2.16 0,-1.188 0.971,-2.16 2.159,-2.16 h 7.832 c 1.187,0 2.159,0.972 2.159,2.16 0,1.203 -0.972,2.16 -2.159,2.16 z m 662.459,-77.748 h 79.93 c 7.617,0 13.784,-6.172 13.784,-13.794 v -79.985 c 0,-7.623 -6.167,-13.794 -13.784,-13.794 h -79.93 c -7.617,0 -13.784,6.171 -13.784,13.794 v 79.985 c 0,7.622 6.167,13.794 13.784,13.794 z m -2.976,42.723 h 32.148 c 5.967,0 10.808,-4.844 10.808,-10.815 0,-5.972 -4.841,-10.816 -10.808,-10.816 H 828.88 c -5.967,0 -10.808,4.844 -10.808,10.816 0,5.971 4.841,10.815 10.808,10.815 z M 894.451,40.1229 h 16.31 c 3.685,0 6.661,-2.9933 6.661,-6.6654 0,-3.6876 -2.991,-6.6655 -6.661,-6.6655 h -16.31 c -3.685,0 -6.661,2.9933 -6.661,6.6655 0,3.6721 2.976,6.6654 6.661,6.6654 z m -0.508,50.4361 c 0,18.883 -15.297,34.191 -34.167,34.191 -18.87,0 -34.168,-15.308 -34.168,-34.191 0,-18.8834 15.298,-34.1913 34.168,-34.1913 18.87,0 34.167,15.3079 34.167,34.1913 z m -10.328,-2e-4 c 0,13.0632 -10.583,23.6532 -23.637,23.6532 -13.054,0 -23.636,-10.59 -23.636,-23.6532 0,-13.0632 10.582,-23.6531 23.636,-23.6531 13.054,0 23.637,10.5899 23.637,23.6531 z M 817.717,345.281 h 7.833 c 1.187,0 2.159,-0.972 2.159,-2.16 0,-1.188 -0.972,-2.16 -2.159,-2.16 h -7.833 c -1.187,0 -2.158,0.972 -2.158,2.16 0,1.204 0.956,2.16 2.158,2.16 z m 14.909,0 h 7.833 c 1.187,0 2.158,-0.972 2.158,-2.16 0,-1.188 -0.971,-2.16 -2.158,-2.16 h -7.833 c -1.187,0 -2.159,0.972 -2.159,2.16 0,1.204 0.972,2.16 2.159,2.16 z m 14.925,0 h 7.833 c 1.187,0 2.159,-0.972 2.159,-2.16 0,-1.188 -0.972,-2.16 -2.159,-2.16 h -7.833 c -1.187,0 -2.158,0.972 -2.158,2.16 -0.016,1.204 0.956,2.16 2.158,2.16 z m -29.834,-21.277 h 7.833 c 1.187,0 2.159,-0.972 2.159,-2.16 0,-1.188 -0.972,-2.16 -2.159,-2.16 h -7.833 c -1.187,0 -2.158,0.972 -2.158,2.16 0,1.188 0.956,2.16 2.158,2.16 z m 14.863,0 h 7.833 c 1.187,0 2.159,-0.972 2.159,-2.16 0,-1.188 -0.972,-2.16 -2.159,-2.16 h -7.833 c -1.187,0 -2.158,0.972 -2.158,2.16 0,1.188 0.971,2.16 2.158,2.16 z m 14.88,0 h 7.832 c 1.188,0 2.159,-0.972 2.159,-2.16 0,-1.188 -0.971,-2.16 -2.159,-2.16 h -7.832 c -1.188,0 -2.159,0.972 -2.159,2.16 0,1.188 0.971,2.16 2.159,2.16 z m 14.878,0 h 7.832 c 1.188,0 2.159,-0.972 2.159,-2.16 0,-1.188 -0.971,-2.16 -2.159,-2.16 h -7.832 c -1.187,0 -2.159,0.972 -2.159,2.16 0,1.188 0.956,2.16 2.159,2.16 z m -44.621,10.631 h 15.157 c 1.187,0 2.158,-0.972 2.158,-2.16 0,-1.188 -0.971,-2.16 -2.158,-2.16 h -15.157 c -1.187,0 -2.158,0.972 -2.158,2.16 0,1.203 0.956,2.16 2.158,2.16 z m 22.11,0 h 7.833 c 1.187,0 2.158,-0.972 2.158,-2.16 0,-1.188 -0.971,-2.16 -2.158,-2.16 h -7.833 c -1.187,0 -2.158,0.972 -2.158,2.16 -0.016,1.203 0.955,2.16 2.158,2.16 z m 15.218,0 h 7.833 c 1.187,0 2.159,-0.972 2.159,-2.16 0,-1.188 -0.972,-2.16 -2.159,-2.16 h -7.833 c -1.187,0 -2.158,0.972 -2.158,2.16 0,1.203 0.956,2.16 2.158,2.16 z M 974.606,44.096 c 0,8.3236 -6.748,15.0712 -15.072,15.0712 -8.323,0 -15.071,-6.7476 -15.071,-15.0712 0,-8.3236 6.748,-15.0712 15.071,-15.0712 8.324,0 15.072,6.7476 15.072,15.0712 z m 0,59.775 c 0,8.324 -6.748,15.071 -15.072,15.071 -8.323,0 -15.071,-6.747 -15.071,-15.071 0,-8.3234 6.748,-15.071 15.071,-15.071 8.324,0 15.072,6.7476 15.072,15.071 z m 29.584,-29.6326 c 0,8.3236 -6.752,15.0712 -15.076,15.0712 -8.323,0 -15.071,-6.7476 -15.071,-15.0712 0,-8.3236 6.748,-15.0712 15.071,-15.0712 8.324,0 15.076,6.7476 15.076,15.0712 z m -59.727,0 c 0,8.3236 -6.747,15.0712 -15.071,15.0712 -8.324,0 -15.071,-6.7476 -15.071,-15.0712 0,-8.3236 6.747,-15.0712 15.071,-15.0712 8.324,0 15.071,6.7476 15.071,15.0712 z M 801.936,389.956 H 221.335 c -2.02,0 -3.639,-1.636 -3.639,-3.642 V 31.0384 c 0,-2.0212 1.634,-3.6413 3.639,-3.6413 h 580.586 c 2.019,0 3.638,1.6355 3.638,3.6413 V 386.314 c 0.016,2.006 -1.619,3.642 -3.623,3.642 z M 242.5,37 H 783.098 V 376.873 H 242.5 Z M 30.7604,84.1312 c -1.8661,-6.8424 -1.8661,-14.0596 0,-20.9019 0.2945,-1.0801 1.2755,-1.8293 2.395,-1.8293 h 17.0824 c 2.4663,0 4.4656,-1.9993 4.4656,-4.4656 V 39.852 c 0,-1.1195 0.7492,-2.1005 1.8293,-2.395 6.8423,-1.8661 14.0595,-1.8661 20.9019,0 1.08,0.2945 1.8293,1.2755 1.8293,2.395 v 17.0824 c 0,2.4663 1.9993,4.4656 4.4655,4.4656 h 17.0826 c 1.119,0 2.1,0.7492 2.395,1.8293 1.866,6.8423 1.866,14.0595 0,20.9019 -0.295,1.08 -1.276,1.8293 -2.395,1.8293 H 83.7294 c -2.4662,0 -4.4655,1.9993 -4.4655,4.4655 v 17.082 c 0,1.12 -0.7493,2.101 -1.8293,2.395 -6.8424,1.867 -14.0596,1.867 -20.9019,0 -1.0801,-0.294 -1.8293,-1.275 -1.8293,-2.395 V 90.426 c 0,-2.4662 -1.9993,-4.4655 -4.4656,-4.4655 H 33.1554 c -1.1195,0 -2.1005,-0.7493 -2.395,-1.8293 z"
           stroke="#ffffff"
           stroke-width="1.1556"
           stroke-miterlimit="10"
           id="path37313"
           style="fill:url(#linearGradient37359);fill-opacity:1" />
        <path
           d="M 4.68799,138.986 C 4.07808,84.8566 3.77312,57.7917 17.3951,38.7736 21.7923,32.6345 27.135,27.2312 33.2243,22.765 52.0876,8.92969 79.1543,8.92969 133.288,8.92969 h 758.014 c 54.133,0 81.2,0 100.063,13.83531 6.089,4.4662 11.435,9.8695 15.825,16.0086 13.63,19.0181 13.32,46.083 12.71,100.2124 l -1.03,91.418 c -0.82,72.921 -1.23,109.382 -20.023,134.882 -6.071,8.239 -13.393,15.479 -21.701,21.458 -25.71,18.503 -62.173,18.503 -135.099,18.503 H 182.542 c -72.926,0 -109.3888,0 -135.099,-18.503 C 39.1358,380.765 31.8139,373.525 25.7421,365.286 6.95052,339.786 6.53969,303.325 5.71804,230.404 Z"
           stroke="#ffffff"
           stroke-width="3.46681"
           id="path37315"
           style="fill:url(#linearGradient37361);fill-opacity:1" />
        <path
           opacity="0.3"
           d="m 1020.38,99.3572 -3.45,-18.8523 C 1010.52,45.5118 980.024,20.0938 944.449,20.0938 H 79.2781 c -35.5749,0 -66.0695,25.418 -72.47666,60.4111 L 3.34961,99.3572 M 210.552,90.7616 c 0,26.0814 -21.143,47.2234 -47.224,47.2234 -26.081,0 -47.223,-21.142 -47.223,-47.2234 0,-26.081 21.142,-47.2237 47.223,-47.2237 26.081,0 47.224,21.1427 47.224,47.2237 z m 696.625,-0.2829 c 0,26.0813 -21.143,47.2233 -47.224,47.2233 -26.081,0 -47.223,-21.142 -47.223,-47.2233 0,-26.081 21.142,-47.2238 47.223,-47.2238 26.081,0 47.224,21.1428 47.224,47.2238 z"
           stroke="#ffffff"
           stroke-width="1.1556"
           stroke-miterlimit="10"
           id="path37317"
           style="fill:url(#linearGradient37363);fill-opacity:1" />
        <path
           fill-rule="evenodd"
           clip-rule="evenodd"
           d="m 310.358,29.0261 c 1.233,0 2.233,-0.9997 2.233,-2.2328 0,-1.2331 -1,-2.2328 -2.233,-2.2328 -1.233,0 -2.233,0.9997 -2.233,2.2328 0,1.2331 1,2.2328 2.233,2.2328 z m 406.363,0 c 1.233,0 2.233,-0.9997 2.233,-2.2328 0,-1.2331 -1,-2.2328 -2.233,-2.2328 -1.233,0 -2.233,0.9997 -2.233,2.2328 0,1.2331 1,2.2328 2.233,2.2328 z"
           fill="#ffffff"
           id="path37319"
           style="fill:url(#linearGradient37365);fill-opacity:1" />
      </g>
      <g
         style="fill:url(#linearGradient37406);fill-opacity:1"
         id="g37398"
         transform="translate(123.31049,1031.6047)">
        <path
           d="m 337.435,111.514 h 20.801 m 416.017,0 h 10.4 m 28.891,0 h 10.4 m -44.491,-5.2 v 10.4 M 110.937,78.5795 v -0.5662 c 0,-1.0178 -0.711,-1.8973 -1.706,-2.1106 -9.5396,-2.0442 -19.4043,-2.0442 -28.9442,0 -0.9952,0.2133 -1.7062,1.0928 -1.7062,2.1106 m 0,0 v 4.033 H 46.2238 m 32.3568,-4.033 c 0,-1.0178 -0.711,-1.8973 -1.7062,-2.1106 -9.5399,-2.0442 -19.4046,-2.0442 -28.9445,0 -0.9952,0.2133 -1.7061,1.0928 -1.7061,2.1106 v 4.033 m 0,0 v -4.7587 c 0,-0.5714 -0.4473,-1.0428 -1.0179,-1.0728 L 40.0802,75.945 C 30.37,75.4339 21.1881,80.3914 16.2886,88.7905 c -0.0724,0.1241 -0.1105,0.2652 -0.1105,0.4088 V 94.758 M 210.319,82.0463 202.447,70.2375 c -0.858,-1.286 -2.301,-2.0584 -3.846,-2.0584 h -66.7 c -1.546,0 -2.989,0.7724 -3.846,2.0584 l -5.562,8.342 m 18.49,-10.252 c 2.472,-2.0685 12.399,-3.6152 24.268,-3.6152 11.869,0 21.795,1.5467 24.267,3.6152 M 149.072,53.1563 h 32.357 m -32.357,0 v 12.7116 m 0,-12.7116 -4.473,-0.4067 c -4.296,-0.3906 -7.197,-4.5676 -6.062,-8.7295 l 0.826,-3.028 c 0.274,-1.0055 1.188,-1.703 2.23,-1.703 h 47.316 c 1.042,0 1.955,0.6975 2.229,1.703 l 0.826,3.028 c 1.135,4.1619 -1.765,8.3389 -6.061,8.7295 l -4.474,0.4067 m 0,0 v 12.7116 m 665.627,16.1784 7.873,-11.8088 c 0.857,-1.286 2.3,-2.0584 3.846,-2.0584 h 66.699 c 1.546,0 2.989,0.7724 3.846,2.0584 l 5.562,8.342 m -18.49,-10.252 c -2.472,-2.0685 -12.398,-3.6152 -24.268,-3.6152 -11.869,0 -21.795,1.5467 -24.267,3.6152 m 40.446,-15.1712 h -32.357 m 32.357,0 v 12.7116 m 0,-12.7116 4.473,-0.4067 c 4.297,-0.3906 7.197,-4.5676 6.062,-8.7295 l -0.826,-3.028 c -0.274,-1.0055 -1.187,-1.703 -2.23,-1.703 h -47.315 c -1.043,0 -1.956,0.6975 -2.23,1.703 l -0.826,3.028 c -1.135,4.1619 1.765,8.3389 6.062,8.7295 l 4.473,0.4067 m 0,0 v 12.7116 m 156.004,20.8008 v -9.2448 c 0,-2.5529 -2.07,-4.6224 -4.62,-4.6224 h -67.025 c -2.553,0 -4.622,2.0695 -4.622,4.6224 v 4.6224 m 50.847,0 v -4.6224 c 0,-2.5529 -2.07,-4.6224 -4.62,-4.6224 h -16.182 c -2.553,0 -4.622,2.0695 -4.622,4.6224 v 4.6224 M 941.815,160.037 1045.24,139.236 M 117.872,160.037 14.4451,139.236 M 268.099,111.514 c 0,6.702 -5.432,12.134 -12.133,12.134 -6.702,0 -12.134,-5.432 -12.134,-12.134 0,-6.701 5.432,-12.1336 12.134,-12.1336 6.701,0 12.133,5.4326 12.133,12.1336 z m 523.488,0 c 0,6.702 -5.432,12.134 -12.134,12.134 -6.701,0 -12.134,-5.432 -12.134,-12.134 0,-6.701 5.433,-12.1336 12.134,-12.1336 6.702,0 12.134,5.4326 12.134,12.1336 z m 39.291,0 c 0,6.702 -5.433,12.134 -12.134,12.134 -6.702,0 -12.134,-5.432 -12.134,-12.134 0,-6.701 5.432,-12.1336 12.134,-12.1336 6.701,0 12.134,5.4326 12.134,12.1336 z m -109.783,0 c 0,6.702 -5.432,12.134 -12.133,12.134 -6.702,0 -12.134,-5.432 -12.134,-12.134 0,-6.701 5.432,-12.1336 12.134,-12.1336 6.701,0 12.133,5.4326 12.133,12.1336 z m -5.778,0 c 0,-3.51 -2.845,-6.356 -6.355,-6.356 -3.511,0 -6.356,2.846 -6.356,6.356 0,3.51 2.845,6.356 6.356,6.356 3.51,0 6.355,-2.846 6.355,-6.356 z m -411.394,1.156 c 0,-1.596 -1.293,-2.889 -2.889,-2.889 -1.596,0 -2.889,1.293 -2.889,2.889 0,1.595 1.293,2.889 2.889,2.889 1.596,0 2.889,-1.294 2.889,-2.889 z m 138.672,13.867 c -3.829,0 -6.933,-3.104 -6.933,-6.934 v -16.178 c 0,-3.8293 3.104,-6.9336 6.933,-6.9336 3.83,0 6.934,3.1043 6.934,6.9336 v 16.178 c 0,3.83 -3.104,6.934 -6.934,6.934 z m 17.334,0 c -3.829,0 -6.933,-3.104 -6.933,-6.934 v -16.178 c 0,-3.8293 3.104,-6.9336 6.933,-6.9336 3.83,0 6.934,3.1043 6.934,6.9336 v 16.178 c 0,3.83 -3.104,6.934 -6.934,6.934 z m 17.334,0 c -3.829,0 -6.933,-3.104 -6.933,-6.934 v -16.178 c 0,-3.8293 3.104,-6.9336 6.933,-6.9336 3.83,0 6.934,3.1043 6.934,6.9336 v 16.178 c 0,3.83 -3.104,6.934 -6.934,6.934 z m 17.334,0 c -3.829,0 -6.933,-3.104 -6.933,-6.934 v -16.178 c 0,-3.8293 3.104,-6.9336 6.933,-6.9336 3.83,0 6.934,3.1043 6.934,6.9336 v 16.178 c 0,3.83 -3.104,6.934 -6.934,6.934 z m 17.334,0 c -3.829,0 -6.933,-3.104 -6.933,-6.934 v -16.178 c 0,-3.8293 3.104,-6.9336 6.933,-6.9336 3.83,0 6.934,3.1043 6.934,6.9336 v 16.178 c 0,3.83 -3.104,6.934 -6.934,6.934 z m 17.334,0 c -3.829,0 -6.933,-3.104 -6.933,-6.934 v -16.178 c 0,-3.8293 3.104,-6.9336 6.933,-6.9336 3.83,0 6.934,3.1043 6.934,6.9336 v 16.178 c 0,3.83 -3.104,6.934 -6.934,6.934 z m 17.334,0 c -3.829,0 -6.933,-3.104 -6.933,-6.934 v -16.178 c 0,-3.8293 3.104,-6.9336 6.933,-6.9336 3.83,0 6.934,3.1043 6.934,6.9336 v 16.178 c 0,3.83 -3.104,6.934 -6.934,6.934 z m 17.334,0 c -3.829,0 -6.933,-3.104 -6.933,-6.934 v -16.178 c 0,-3.8293 3.104,-6.9336 6.933,-6.9336 3.83,0 6.934,3.1043 6.934,6.9336 v 16.178 c 0,3.83 -3.104,6.934 -6.934,6.934 z m 17.335,0 c -3.83,0 -6.934,-3.104 -6.934,-6.934 v -16.178 c 0,-3.8293 3.104,-6.9336 6.934,-6.9336 3.829,0 6.933,3.1043 6.933,6.9336 v 16.178 c 0,3.83 -3.104,6.934 -6.933,6.934 z m 17.334,0 c -3.83,0 -6.934,-3.104 -6.934,-6.934 v -16.178 c 0,-3.8293 3.104,-6.9336 6.934,-6.9336 3.829,0 6.933,3.1043 6.933,6.9336 v 16.178 c 0,3.83 -3.104,6.934 -6.933,6.934 z m 17.334,0 c -3.83,0 -6.934,-3.104 -6.934,-6.934 v -16.178 c 0,-3.8293 3.104,-6.9336 6.934,-6.9336 3.829,0 6.933,3.1043 6.933,6.9336 v 16.178 c 0,3.83 -3.104,6.934 -6.933,6.934 z M 336.858,117.87 h 21.956 c 3.51,0 6.356,-2.846 6.356,-6.356 0,-3.51 -2.846,-6.356 -6.356,-6.356 h -21.956 c -3.511,0 -6.356,2.846 -6.356,6.356 0,3.51 2.845,6.356 6.356,6.356 z M 137.516,82.0463 h -32.357 c 0,-1.9146 1.553,-3.4668 3.467,-3.4668 h 25.424 c 1.914,0 3.466,1.5522 3.466,3.4668 z m 782.343,0 h 32.357 c 0,-1.9146 -1.552,-3.4668 -3.467,-3.4668 h -25.423 c -1.915,0 -3.467,1.5522 -3.467,3.4668 z m 91.391,123.2787 -18.892,2.907 c -12.708,1.955 -25.314,-4.086 -31.752,-15.215 l -21.079,-36.435 c -5.47,-9.456 -15.076,-15.78 -25.923,-17.067 l -5.643,-0.669 c -6.396,-0.759 -11.214,-6.182 -11.214,-12.623 v -2.575 c 0,-7.659 6.208,-13.867 13.867,-13.867 h 117.526 c 11.19,0 19.82,9.865 18.33,20.956 l -4.38,32.486 c -0.59,4.426 -1.54,8.796 -2.84,13.069 l -1.96,6.452 c -3.62,11.909 -13.74,20.689 -26.04,22.581 z m -962.8117,0 18.8904,2.907 c 12.7077,1.955 25.3135,-4.086 31.7519,-15.215 l 21.0784,-36.435 c 5.47,-9.456 15.076,-15.78 25.924,-17.067 l 5.643,-0.669 c 6.396,-0.759 11.214,-6.182 11.214,-12.623 v -2.575 c 0,-7.659 -6.209,-13.867 -13.868,-13.867 H 31.5455 c -11.1917,0 -19.8175,9.865 -18.3244,20.956 l 4.3731,32.486 c 0.5958,4.426 1.5468,8.796 2.8439,13.069 l 1.9587,6.452 c 3.6152,11.909 13.7405,20.689 26.0415,22.581 z"
           stroke="#ffffff"
           stroke-width="1.1556"
           stroke-miterlimit="10"
           id="path37383"
           style="fill-opacity:1;fill:url(#linearGradient37406)" />
        <path
           opacity="0.3"
           d="m 18.4896,168.139 2.5418,7.326 c 4.4808,12.915 15.7212,22.305 29.2277,24.415 l 14.2046,2.219 c 11.5837,1.81 23.0543,-3.859 28.6514,-14.161 l 19.0499,-35.064 c 7.078,-13.026 20.715,-21.137 35.54,-21.137 h 764.277 c 14.825,0 28.462,8.11 35.54,21.137 l 19.05,35.064 c 5.597,10.302 17.068,15.971 28.651,14.161 l 14.207,-2.219 c 13.5,-2.111 24.74,-11.5 29.23,-24.415 l 2.54,-7.327 m 15.02,-44.49 c -1.3,-18.232 -16.47,-32.357 -34.75,-32.357 H 38.2173 c -18.2779,0 -33.44826,14.125 -34.7505,32.357"
           stroke="#ffffff"
           stroke-width="1.1556"
           stroke-miterlimit="10"
           id="path37385"
           style="fill-opacity:1;fill:url(#linearGradient37406)" />
        <path
           d="m 45.2336,82.0469 c -25.17,0 -44.574644,22.1771 -41.23349,47.1241 l 6.15789,45.978 c 2.8497,21.279 19.9746,37.794 41.3421,39.872 l 19.1571,1.862 c 16.9724,1.65 33.4748,-6.178 42.9338,-20.366 l 22.626,-33.939 c 5.144,-7.716 13.803,-12.351 23.076,-12.351 h 741.101 c 9.273,0 17.933,4.635 23.076,12.351 l 22.626,33.939 c 9.459,14.188 25.962,22.016 42.934,20.366 l 19.16,-1.862 c 21.36,-2.078 38.49,-18.593 41.34,-39.872 l 6.16,-45.978 c 3.34,-24.947 -16.07,-47.1241 -41.24,-47.1241 z"
           stroke="#ffffff"
           stroke-width="3.46681"
           stroke-miterlimit="10"
           id="path37387"
           style="fill-opacity:1;fill:url(#linearGradient37406)" />
      </g>
    </g>
  </g>
</svg>
